# Made in Blockbench 4.9.4
mtllib dog.mtl

o body
v 1.25 2 0.375
v 1.25 2 -0.375
v 1.25 1.125 0.375
v 1.25 1.125 -0.375
v -0.5 2 0.375
v -0.5 2 -0.375
v -0.5 1.125 0.375
v -0.5 1.125 -0.375
vt 0.09375 0.546875
vt 0 0.546875
vt 0 0.4375
vt 0.09375 0.4375
vt 0.1875 0.4375
vt 0.1875 0.546875
vt 0.09375 0.546875
vt 0.09375 0.4375
vt 0 0.6875
vt 0.21875 0.6875
vt 0.21875 0.78125
vt 0 0.78125
vt 0.4375 0.90625
vt 0.4375 1
vt 0.21875 1
vt 0.21875 0.90625
vt 0.21875 0.890625
vt 0.21875 1
vt 0 1
vt 0 0.890625
vt 0.21875 0.890625
vt 0 0.890625
vt 0 0.78125
vt 0.21875 0.78125
vn 1 0 0
vn -1 0 0
vn 0 1 0
vn 0 -1 0
vn 0 0 1
vn 0 0 -1
usemtl m_b6a46741-6489-459e-0551-c6ea7e117c34
f 2/1/1 1/2/1 3/3/1
f 2/1/1 3/3/1 4/4/1
f 7/5/2 5/6/2 6/7/2
f 7/5/2 6/7/2 8/8/2
f 5/9/3 1/10/3 2/11/3
f 5/9/3 2/11/3 6/12/3
f 4/13/4 3/14/4 7/15/4
f 4/13/4 7/15/4 8/16/4
f 3/17/5 1/18/5 5/19/5
f 3/17/5 5/19/5 7/20/5
f 6/21/6 2/22/6 4/23/6
f 6/21/6 4/23/6 8/24/6
o chest
v -0.5258528596345575 2.104670761931412 0.43750000000000006
v -0.5258528596345575 2.104670761931412 -0.43750000000000006
v -0.05040731517627062 1.0850745015151808 0.43750000000000006
v -0.05040731517627062 1.0850745015151808 -0.43750000000000006
v -1.3755164099814168 1.7084661415495064 0.43750000000000006
v -1.3755164099814168 1.7084661415495064 -0.43750000000000006
v -0.9000708655231299 0.6888698811332751 0.43750000000000006
v -0.9000708655231299 0.6888698811332751 -0.43750000000000006
vt 0.109375 0.6875
vt 0 0.6875
vt 0 0.546875
vt 0.109375 0.546875
vt 0.21875 0.546875
vt 0.21875 0.6875
vt 0.109375 0.6875
vt 0.109375 0.546875
vt 0.34375 0.796875
vt 0.46875 0.796875
vt 0.46875 0.90625
vt 0.34375 0.90625
vt 0.46875 0.6875
vt 0.46875 0.796875
vt 0.34375 0.796875
vt 0.34375 0.6875
vt 0.34375 0.765625
vt 0.34375 0.90625
vt 0.21875 0.90625
vt 0.21875 0.765625
vt 0.34375 0.765625
vt 0.21875 0.765625
vt 0.21875 0.625
vt 0.34375 0.625
vn 0.9063077870366499 0.42261826174069944 0
vn -0.9063077870366499 -0.42261826174069944 0
vn -0.42261826174069944 0.9063077870366499 0
vn 0.42261826174069944 -0.9063077870366499 0
vn 0 0 1
vn 0 0 -1
usemtl m_b6a46741-6489-459e-0551-c6ea7e117c34
f 10/25/7 9/26/7 11/27/7
f 10/25/7 11/27/7 12/28/7
f 15/29/8 13/30/8 14/31/8
f 15/29/8 14/31/8 16/32/8
f 13/33/9 9/34/9 10/35/9
f 13/33/9 10/35/9 14/36/9
f 12/37/10 11/38/10 15/39/10
f 12/37/10 15/39/10 16/40/10
f 11/41/11 9/42/11 13/43/11
f 11/41/11 13/43/11 15/44/11
f 14/45/12 10/46/12 12/47/12
f 14/45/12 12/47/12 16/48/12
o mid_body
v 0.4608744118099885 1.7357489087443505 0.31250000000000006
v 0.4608744118099885 1.7357489087443505 -0.31250000000000006
v 0.5961491705213029 1.125563904294392 0.31250000000000006
v 0.5961491705213029 1.125563904294392 -0.31250000000000006
v -0.6984770966449318 1.4787268671928535 0.31250000000000006
v -0.6984770966449318 1.4787268671928535 -0.31250000000000006
v -0.5632023379336175 0.8685418627428949 0.31250000000000006
v -0.5632023379336175 0.8685418627428949 -0.31250000000000006
vt 0.421875 0.53125
vt 0.34375 0.53125
vt 0.34375 0.453125
vt 0.421875 0.453125
vt 0.5 0.453125
vt 0.5 0.53125
vt 0.421875 0.53125
vt 0.421875 0.453125
vt 0.34375 0.609375
vt 0.5 0.609375
vt 0.5 0.6875
vt 0.34375 0.6875
vt 0.375 0.53125
vt 0.375 0.609375
vt 0.21875 0.609375
vt 0.21875 0.53125
vt 0.53125 0.53125
vt 0.53125 0.609375
vt 0.375 0.609375
vt 0.375 0.53125
vt 0.59375 1
vt 0.4375 1
vt 0.4375 0.921875
vt 0.59375 0.921875
vn 0.9762960071199334 0.21643961393810288 0
vn -0.9762960071199334 -0.21643961393810288 0
vn -0.21643961393810288 0.9762960071199334 0
vn 0.21643961393810288 -0.9762960071199334 0
vn 0 0 1
vn 0 0 -1
usemtl m_b6a46741-6489-459e-0551-c6ea7e117c34
f 18/49/13 17/50/13 19/51/13
f 18/49/13 19/51/13 20/52/13
f 23/53/14 21/54/14 22/55/14
f 23/53/14 22/55/14 24/56/14
f 21/57/15 17/58/15 18/59/15
f 21/57/15 18/59/15 22/60/15
f 20/61/16 19/62/16 23/63/16
f 20/61/16 23/63/16 24/64/16
f 19/65/17 17/66/17 21/67/17
f 19/65/17 21/67/17 23/68/17
f 22/69/18 18/70/18 20/71/18
f 22/69/18 20/71/18 24/72/18
o right_ear
v -0.7831100268082989 2.2626693635566677 -0.1875
v -0.7831100268082989 2.2626693635566677 -0.3125
v -0.9562657567714367 1.9300403011148348 -0.1875
v -0.9562657567714367 1.9300403011148348 -0.3125
v -1.0603009121764932 2.406965805192616 -0.1875
v -1.0603009121764932 2.406965805192616 -0.3125
v -1.233456642139631 2.074336742750783 -0.1875
v -1.233456642139631 2.074336742750783 -0.3125
vt 0.4375 0.328125
vt 0.421875 0.328125
vt 0.421875 0.28125
vt 0.4375 0.28125
vt 0.703125 0.296875
vt 0.703125 0.34375
vt 0.6875 0.34375
vt 0.6875 0.296875
vt 0.640625 0.640625
vt 0.6875 0.640625
vt 0.6875 0.65625
vt 0.640625 0.65625
vt 0.71875 0.75
vt 0.71875 0.765625
vt 0.671875 0.765625
vt 0.671875 0.75
vt 0.203125 0.296875
vt 0.203125 0.34375
vt 0.15625 0.34375
vt 0.15625 0.296875
vt 0.25 0.34375
vt 0.203125 0.34375
vt 0.203125 0.296875
vt 0.25 0.296875
vn 0.8870108331782217 -0.461748613235034 0
vn -0.8870108331782217 0.461748613235034 0
vn 0.461748613235034 0.8870108331782217 0
vn -0.461748613235034 -0.8870108331782217 0
vn 0 0 1
vn 0 0 -1
usemtl m_b6a46741-6489-459e-0551-c6ea7e117c34
f 26/73/19 25/74/19 27/75/19
f 26/73/19 27/75/19 28/76/19
f 31/77/20 29/78/20 30/79/20
f 31/77/20 30/79/20 32/80/20
f 29/81/21 25/82/21 26/83/21
f 29/81/21 26/83/21 30/84/21
f 28/85/22 27/86/22 31/87/22
f 28/85/22 31/87/22 32/88/22
f 27/89/23 25/90/23 29/91/23
f 27/89/23 29/91/23 31/92/23
f 30/93/24 26/94/24 28/95/24
f 30/93/24 28/95/24 32/96/24
o left_ear
v -0.7831100268082989 2.2626693635566677 0.3125
v -0.7831100268082989 2.2626693635566677 0.1875
v -0.9562657567714367 1.9300403011148348 0.3125
v -0.9562657567714367 1.9300403011148348 0.1875
v -1.0603009121764932 2.406965805192616 0.3125
v -1.0603009121764932 2.406965805192616 0.1875
v -1.233456642139631 2.074336742750783 0.3125
v -1.233456642139631 2.074336742750783 0.1875
vt 0.34375 0.4375
vt 0.328125 0.4375
vt 0.328125 0.390625
vt 0.34375 0.390625
vt 0.34375 0.34375
vt 0.34375 0.390625
vt 0.328125 0.390625
vt 0.328125 0.34375
vt 0.21875 0.609375
vt 0.265625 0.609375
vt 0.265625 0.625
vt 0.21875 0.625
vt 0.3125 0.609375
vt 0.3125 0.625
vt 0.265625 0.625
vt 0.265625 0.609375
vt 0.15625 0.296875
vt 0.15625 0.34375
vt 0.109375 0.34375
vt 0.109375 0.296875
vt 0.703125 0.859375
vt 0.65625 0.859375
vt 0.65625 0.8125
vt 0.703125 0.8125
vn 0.8870108331782217 -0.461748613235034 0
vn -0.8870108331782217 0.461748613235034 0
vn 0.461748613235034 0.8870108331782217 0
vn -0.461748613235034 -0.8870108331782217 0
vn 0 0 1
vn 0 0 -1
usemtl m_b6a46741-6489-459e-0551-c6ea7e117c34
f 34/97/25 33/98/25 35/99/25
f 34/97/25 35/99/25 36/100/25
f 39/101/26 37/102/26 38/103/26
f 39/101/26 38/103/26 40/104/26
f 37/105/27 33/106/27 34/107/27
f 37/105/27 34/107/27 38/108/27
f 36/109/28 35/110/28 39/111/28
f 36/109/28 39/111/28 40/112/28
f 35/113/29 33/114/29 37/115/29
f 35/113/29 37/115/29 39/116/29
f 38/117/30 34/118/30 36/119/30
f 38/117/30 36/119/30 40/120/30
o head
v -0.8511063001906323 2.384229648258596 0.25
v -0.8511063001906323 2.384229648258596 -0.25
v -0.8020811948950746 1.823870130581989 0.25
v -0.8020811948950746 1.823870130581989 -0.25
v -1.4737279864979735 2.3297573090413097 0.25
v -1.4737279864979735 2.3297573090413097 -0.25
v -1.4247028812024156 1.7693977913647028 0.25
v -1.4247028812024156 1.7693977913647028 -0.25
vt 0.5 0.453125
vt 0.4375 0.453125
vt 0.4375 0.375
vt 0.5 0.375
vt 0.5625 0.375
vt 0.5625 0.453125
vt 0.5 0.453125
vt 0.5 0.375
vt 0.546875 0.734375
vt 0.625 0.734375
vt 0.625 0.796875
vt 0.546875 0.796875
vt 0.078125 0.375
vt 0.078125 0.4375
vt 0 0.4375
vt 0 0.375
vt 0.578125 0.65625
vt 0.578125 0.734375
vt 0.5 0.734375
vt 0.5 0.65625
vt 0.578125 0.53125
vt 0.5 0.53125
vt 0.5 0.453125
vt 0.578125 0.453125
vn 0.9961946980917455 0.08715574274765818 0
vn -0.9961946980917455 -0.08715574274765818 0
vn -0.08715574274765818 0.9961946980917455 0
vn 0.08715574274765818 -0.9961946980917455 0
vn 0 0 1
vn 0 0 -1
usemtl m_b6a46741-6489-459e-0551-c6ea7e117c34
f 42/121/31 41/122/31 43/123/31
f 42/121/31 43/123/31 44/124/31
f 47/125/32 45/126/32 46/127/32
f 47/125/32 46/127/32 48/128/32
f 45/129/33 41/130/33 42/131/33
f 45/129/33 42/131/33 46/132/33
f 44/133/34 43/134/34 47/135/34
f 44/133/34 47/135/34 48/136/34
f 43/137/35 41/138/35 45/139/35
f 43/137/35 45/139/35 47/140/35
f 46/141/36 42/142/36 44/143/36
f 46/141/36 44/143/36 48/144/36
o nose
v -1.4519390508110586 2.0807086345183734 0.15625
v -1.4519390508110586 2.0807086345183734 -0.15625
v -1.4247028812024154 1.7693977913647028 0.15625
v -1.4247028812024154 1.7693977913647028 -0.15625
v -1.8255120625954633 2.0480252309880016 0.15625
v -1.8255120625954633 2.0480252309880016 -0.15625
v -1.79827589298682 1.736714387834331 0.15625
v -1.79827589298682 1.736714387834331 -0.15625
vt 0.6875 0.609375
vt 0.640625 0.609375
vt 0.640625 0.5625
vt 0.6875 0.5625
vt 0.6875 0.515625
vt 0.6875 0.5625
vt 0.640625 0.5625
vt 0.640625 0.515625
vt 0.65625 0.953125
vt 0.703125 0.953125
vt 0.703125 1
vt 0.65625 1
vt 0.703125 0.90625
vt 0.703125 0.953125
vt 0.65625 0.953125
vt 0.65625 0.90625
vt 0.109375 0.296875
vt 0.109375 0.34375
vt 0.0625 0.34375
vt 0.0625 0.296875
vt 0.703125 0.90625
vt 0.65625 0.90625
vt 0.65625 0.859375
vt 0.703125 0.859375
vn 0.9961946980917455 0.08715574274765818 0
vn -0.9961946980917455 -0.08715574274765818 0
vn -0.08715574274765818 0.9961946980917455 0
vn 0.08715574274765818 -0.9961946980917455 0
vn 0 0 1
vn 0 0 -1
usemtl m_b6a46741-6489-459e-0551-c6ea7e117c34
f 50/145/37 49/146/37 51/147/37
f 50/145/37 51/147/37 52/148/37
f 55/149/38 53/150/38 54/151/38
f 55/149/38 54/151/38 56/152/38
f 53/153/39 49/154/39 50/155/39
f 53/153/39 50/155/39 54/156/39
f 52/157/40 51/158/40 55/159/40
f 52/157/40 55/159/40 56/160/40
f 51/161/41 49/162/41 53/163/41
f 51/161/41 53/163/41 55/164/41
f 54/165/42 50/166/42 52/167/42
f 54/165/42 52/167/42 56/168/42
o lower_leg
v -0.4694634941077977 0.9836582982348141 -0.16250000000000003
v -0.4694634941077977 0.9836582982348141 -0.4125
v -0.5566192368554559 -0.012536399856931446 -0.16250000000000003
v -0.5566192368554559 -0.012536399856931446 -0.4125
v -0.7807743372614682 1.0108944678434573 -0.16250000000000003
v -0.7807743372614682 1.0108944678434573 -0.4125
v -0.8679300800091263 0.014699769751711722 -0.16250000000000003
v -0.8679300800091263 0.014699769751711722 -0.4125
vt 0.296875 0.4375
vt 0.265625 0.4375
vt 0.265625 0.3125
vt 0.296875 0.3125
vt 0.328125 0.3125
vt 0.328125 0.4375
vt 0.296875 0.4375
vt 0.296875 0.3125
vt 0.671875 0.4375
vt 0.71875 0.4375
vt 0.71875 0.46875
vt 0.671875 0.46875
vt 0.296875 0.28125
vt 0.296875 0.3125
vt 0.25 0.3125
vt 0.25 0.28125
vt 0.578125 0.53125
vt 0.578125 0.65625
vt 0.53125 0.65625
vt 0.53125 0.53125
vt 0.59375 0.921875
vt 0.546875 0.921875
vt 0.546875 0.796875
vt 0.59375 0.796875
vn 0.9961946980917455 -0.08715574274765818 0
vn -0.9961946980917455 0.08715574274765818 0
vn 0.08715574274765818 0.9961946980917455 0
vn -0.08715574274765818 -0.9961946980917455 0
vn 0 0 1
vn 0 0 -1
usemtl m_b6a46741-6489-459e-0551-c6ea7e117c34
f 58/169/43 57/170/43 59/171/43
f 58/169/43 59/171/43 60/172/43
f 63/173/44 61/174/44 62/175/44
f 63/173/44 62/175/44 64/176/44
f 61/177/45 57/178/45 58/179/45
f 61/177/45 58/179/45 62/180/45
f 60/181/46 59/182/46 63/183/46
f 60/181/46 63/183/46 64/184/46
f 59/185/47 57/186/47 61/187/47
f 59/185/47 61/187/47 63/188/47
f 62/189/48 58/190/48 60/191/48
f 62/189/48 60/191/48 64/192/48
o lower_leg
v -0.4694634941077977 0.9836582982348141 0.4125000000000001
v -0.4694634941077977 0.9836582982348141 0.1625000000000001
v -0.5566192368554559 -0.012536399856931446 0.4125000000000001
v -0.5566192368554559 -0.012536399856931446 0.1625000000000001
v -0.7807743372614682 1.0108944678434573 0.4125000000000001
v -0.7807743372614682 1.0108944678434573 0.1625000000000001
v -0.8679300800091263 0.014699769751711722 0.4125000000000001
v -0.8679300800091263 0.014699769751711722 0.1625000000000001
vt 0.59375 0.453125
vt 0.5625 0.453125
vt 0.5625 0.328125
vt 0.59375 0.328125
vt 0.609375 0.609375
vt 0.609375 0.734375
vt 0.578125 0.734375
vt 0.578125 0.609375
vt 0.6875 0.625
vt 0.734375 0.625
vt 0.734375 0.65625
vt 0.6875 0.65625
vt 0.734375 0.59375
vt 0.734375 0.625
vt 0.6875 0.625
vt 0.6875 0.59375
vt 0.390625 0.328125
vt 0.390625 0.453125
vt 0.34375 0.453125
vt 0.34375 0.328125
vt 0.4375 0.453125
vt 0.390625 0.453125
vt 0.390625 0.328125
vt 0.4375 0.328125
vn 0.9961946980917455 -0.08715574274765818 0
vn -0.9961946980917455 0.08715574274765818 0
vn 0.08715574274765818 0.9961946980917455 0
vn -0.08715574274765818 -0.9961946980917455 0
vn 0 0 1
vn 0 0 -1
usemtl m_b6a46741-6489-459e-0551-c6ea7e117c34
f 66/193/49 65/194/49 67/195/49
f 66/193/49 67/195/49 68/196/49
f 71/197/50 69/198/50 70/199/50
f 71/197/50 70/199/50 72/200/50
f 69/201/51 65/202/51 66/203/51
f 69/201/51 66/203/51 70/204/51
f 68/205/52 67/206/52 71/207/52
f 68/205/52 71/207/52 72/208/52
f 67/209/53 65/210/53 69/211/53
f 67/209/53 69/211/53 71/212/53
f 70/213/54 66/214/54 68/215/54
f 70/213/54 68/215/54 72/216/54
o lower_leg
v 1.2098962161700404 0.7250786323244693 0.4375
v 1.2098962161700404 0.7250786323244693 0.1875
v 1.1120015720050018 -0.018505013705888418 0.4375
v 1.1120015720050018 -0.018505013705888418 0.1875
v 0.9620350008265879 0.7577101803794822 0.4375
v 0.9620350008265879 0.7577101803794822 0.1875
v 0.8641403566615492 0.014126534349124475 0.4375
v 0.8641403566615492 0.014126534349124475 0.1875
vt 0.625 1
vt 0.59375 1
vt 0.59375 0.90625
vt 0.625 0.90625
vt 0.625 0.8125
vt 0.625 0.90625
vt 0.59375 0.90625
vt 0.59375 0.8125
vt 0.640625 0.484375
vt 0.671875 0.484375
vt 0.671875 0.515625
vt 0.640625 0.515625
vt 0.328125 0.28125
vt 0.328125 0.3125
vt 0.296875 0.3125
vt 0.296875 0.28125
vt 0.625 0.390625
vt 0.625 0.484375
vt 0.59375 0.484375
vt 0.59375 0.390625
vt 0.640625 0.734375
vt 0.609375 0.734375
vt 0.609375 0.640625
vt 0.640625 0.640625
vn 0.9914448613738104 -0.1305261922200516 0
vn -0.9914448613738104 0.1305261922200516 0
vn 0.1305261922200516 0.9914448613738104 0
vn -0.1305261922200516 -0.9914448613738104 0
vn 0 0 1
vn 0 0 -1
usemtl m_b6a46741-6489-459e-0551-c6ea7e117c34
f 74/217/55 73/218/55 75/219/55
f 74/217/55 75/219/55 76/220/55
f 79/221/56 77/222/56 78/223/56
f 79/221/56 78/223/56 80/224/56
f 77/225/57 73/226/57 74/227/57
f 77/225/57 74/227/57 78/228/57
f 76/229/58 75/230/58 79/231/58
f 76/229/58 79/231/58 80/232/58
f 75/233/59 73/234/59 77/235/59
f 75/233/59 77/235/59 79/236/59
f 78/237/60 74/238/60 76/239/60
f 78/237/60 76/239/60 80/240/60
o upper_leg
v 1.0394251048113046 1.4956615548251735 0.4375
v 1.0394251048113046 1.4956615548251735 0.1875
v 1.3455718507033765 0.7565579288161439 0.4375
v 1.3455718507033765 0.7565579288161439 0.1875
v 0.5081943736173151 1.2756185812152472 0.4375
v 0.5081943736173151 1.2756185812152472 0.1875
v 0.814341119509387 0.5365149552062176 0.4375
v 0.814341119509387 0.5365149552062176 0.1875
vt 0.625 0.390625
vt 0.59375 0.390625
vt 0.59375 0.296875
vt 0.625 0.296875
vt 0.03125 0.28125
vt 0.03125 0.375
vt 0 0.375
vt 0 0.28125
vt 0.609375 0.609375
vt 0.6875 0.609375
vt 0.6875 0.640625
vt 0.609375 0.640625
vt 0.71875 0.71875
vt 0.71875 0.75
vt 0.640625 0.75
vt 0.640625 0.71875
vt 0.546875 0.828125
vt 0.546875 0.921875
vt 0.46875 0.921875
vt 0.46875 0.828125
vt 0.546875 0.828125
vt 0.46875 0.828125
vt 0.46875 0.734375
vt 0.546875 0.734375
vn 0.9238795325112868 0.3826834323650898 0
vn -0.9238795325112868 -0.3826834323650898 0
vn -0.3826834323650898 0.9238795325112868 0
vn 0.3826834323650898 -0.9238795325112868 0
vn 0 0 1
vn 0 0 -1
usemtl m_b6a46741-6489-459e-0551-c6ea7e117c34
f 82/241/61 81/242/61 83/243/61
f 82/241/61 83/243/61 84/244/61
f 87/245/62 85/246/62 86/247/62
f 87/245/62 86/247/62 88/248/62
f 85/249/63 81/250/63 82/251/63
f 85/249/63 82/251/63 86/252/63
f 84/253/64 83/254/64 87/255/64
f 84/253/64 87/255/64 88/256/64
f 83/257/65 81/258/65 85/259/65
f 83/257/65 85/259/65 87/260/65
f 86/261/66 82/262/66 84/263/66
f 86/261/66 84/263/66 88/264/66
o lower_leg
v 1.2098962161700404 0.7250786323244693 -0.1875
v 1.2098962161700404 0.7250786323244693 -0.4375
v 1.1120015720050018 -0.018505013705888418 -0.1875
v 1.1120015720050018 -0.018505013705888418 -0.4375
v 0.9620350008265879 0.7577101803794822 -0.1875
v 0.9620350008265879 0.7577101803794822 -0.4375
v 0.8641403566615492 0.014126534349124475 -0.1875
v 0.8641403566615492 0.014126534349124475 -0.4375
vt 0.65625 1
vt 0.625 1
vt 0.625 0.90625
vt 0.65625 0.90625
vt 0.0625 0.28125
vt 0.0625 0.375
vt 0.03125 0.375
vt 0.03125 0.28125
vt 0.53125 0.28125
vt 0.5625 0.28125
vt 0.5625 0.3125
vt 0.53125 0.3125
vt 0.71875 0.40625
vt 0.71875 0.4375
vt 0.6875 0.4375
vt 0.6875 0.40625
vt 0.65625 0.8125
vt 0.65625 0.90625
vt 0.625 0.90625
vt 0.625 0.8125
vt 0.46875 0.375
vt 0.4375 0.375
vt 0.4375 0.28125
vt 0.46875 0.28125
vn 0.9914448613738104 -0.1305261922200516 0
vn -0.9914448613738104 0.1305261922200516 0
vn 0.1305261922200516 0.9914448613738104 0
vn -0.1305261922200516 -0.9914448613738104 0
vn 0 0 1
vn 0 0 -1
usemtl m_b6a46741-6489-459e-0551-c6ea7e117c34
f 90/265/67 89/266/67 91/267/67
f 90/265/67 91/267/67 92/268/67
f 95/269/68 93/270/68 94/271/68
f 95/269/68 94/271/68 96/272/68
f 93/273/69 89/274/69 90/275/69
f 93/273/69 90/275/69 94/276/69
f 92/277/70 91/278/70 95/279/70
f 92/277/70 95/279/70 96/280/70
f 91/281/71 89/282/71 93/283/71
f 91/281/71 93/283/71 95/284/71
f 94/285/72 90/286/72 92/287/72
f 94/285/72 92/287/72 96/288/72
o upper_leg
v 1.0394251048113046 1.4956615548251735 -0.1875
v 1.0394251048113046 1.4956615548251735 -0.4375
v 1.3455718507033765 0.7565579288161439 -0.1875
v 1.3455718507033765 0.7565579288161439 -0.4375
v 0.5081943736173151 1.2756185812152472 -0.1875
v 0.5081943736173151 1.2756185812152472 -0.4375
v 0.814341119509387 0.5365149552062176 -0.1875
v 0.814341119509387 0.5365149552062176 -0.4375
vt 0.5 0.375
vt 0.46875 0.375
vt 0.46875 0.28125
vt 0.5 0.28125
vt 0.53125 0.28125
vt 0.53125 0.375
vt 0.5 0.375
vt 0.5 0.28125
vt 0.640625 0.6875
vt 0.71875 0.6875
vt 0.71875 0.71875
vt 0.640625 0.71875
vt 0.71875 0.65625
vt 0.71875 0.6875
vt 0.640625 0.6875
vt 0.640625 0.65625
vt 0.265625 0.4375
vt 0.265625 0.53125
vt 0.1875 0.53125
vt 0.1875 0.4375
vt 0.34375 0.53125
vt 0.265625 0.53125
vt 0.265625 0.4375
vt 0.34375 0.4375
vn 0.9238795325112868 0.3826834323650898 0
vn -0.9238795325112868 -0.3826834323650898 0
vn -0.3826834323650898 0.9238795325112868 0
vn 0.3826834323650898 -0.9238795325112868 0
vn 0 0 1
vn 0 0 -1
usemtl m_b6a46741-6489-459e-0551-c6ea7e117c34
f 98/289/73 97/290/73 99/291/73
f 98/289/73 99/291/73 100/292/73
f 103/293/74 101/294/74 102/295/74
f 103/293/74 102/295/74 104/296/74
f 101/297/75 97/298/75 98/299/75
f 101/297/75 98/299/75 102/300/75
f 100/301/76 99/302/76 103/303/76
f 100/301/76 103/303/76 104/304/76
f 99/305/77 97/306/77 101/307/77
f 99/305/77 101/307/77 103/308/77
f 102/309/78 98/310/78 100/311/78
f 102/309/78 100/311/78 104/312/78
o mid_upper
v 1.4868704970072195 1.5740062116375222 0.15625
v 1.4868704970072195 1.5740062116375222 -0.15625
v 1.7123998466354244 0.8587184985763519 0.15625
v 1.7123998466354244 0.8587184985763519 -0.15625
v 1.1292266404766345 1.4612415368234197 0.15625
v 1.1292266404766345 1.4612415368234197 -0.15625
v 1.3547559901048392 0.7459538237622494 0.15625
v 1.3547559901048392 0.7459538237622494 -0.15625
vt 0.125 0.4375
vt 0.078125 0.4375
vt 0.078125 0.34375
vt 0.125 0.34375
vt 0.171875 0.34375
vt 0.171875 0.4375
vt 0.125 0.4375
vt 0.125 0.34375
vt 0.671875 0.765625
vt 0.71875 0.765625
vt 0.71875 0.8125
vt 0.671875 0.8125
vt 0.375 0.28125
vt 0.375 0.328125
vt 0.328125 0.328125
vt 0.328125 0.28125
vt 0.21875 0.34375
vt 0.21875 0.4375
vt 0.171875 0.4375
vt 0.171875 0.34375
vt 0.265625 0.4375
vt 0.21875 0.4375
vt 0.21875 0.34375
vt 0.265625 0.34375
vn 0.9537169507482269 0.30070579950427306 0
vn -0.9537169507482269 -0.30070579950427306 0
vn -0.30070579950427306 0.9537169507482269 0
vn 0.30070579950427306 -0.9537169507482269 0
vn 0 0 1
vn 0 0 -1
usemtl m_b6a46741-6489-459e-0551-c6ea7e117c34
f 106/313/79 105/314/79 107/315/79
f 106/313/79 107/315/79 108/316/79
f 111/317/80 109/318/80 110/319/80
f 111/317/80 110/319/80 112/320/80
f 109/321/81 105/322/81 106/323/81
f 109/321/81 106/323/81 110/324/81
f 108/325/82 107/326/82 111/327/82
f 108/325/82 111/327/82 112/328/82
f 107/329/83 105/330/83 109/331/83
f 107/329/83 109/331/83 111/332/83
f 110/333/84 106/334/84 108/335/84
f 110/333/84 108/335/84 112/336/84
o tail_base
v 1.2490220682350404 1.8905060276977321 0.125
v 1.2490220682350404 1.8905060276977321 -0.125
v 1.4990220682350404 1.4574933258055127 0.125
v 1.4990220682350404 1.4574933258055127 -0.125
v 1.0325157172889308 1.7655060276977321 0.125
v 1.0325157172889308 1.7655060276977321 -0.125
v 1.2825157172889308 1.3324933258055127 0.125
v 1.2825157172889308 1.3324933258055127 -0.125
vt 0.5625 0.375
vt 0.53125 0.375
vt 0.53125 0.3125
vt 0.5625 0.3125
vt 0.59375 0.265625
vt 0.59375 0.328125
vt 0.5625 0.328125
vt 0.5625 0.265625
vt 0.6875 0.375
vt 0.71875 0.375
vt 0.71875 0.40625
vt 0.6875 0.40625
vt 0.71875 0.34375
vt 0.71875 0.375
vt 0.6875 0.375
vt 0.6875 0.34375
vt 0.65625 0.265625
vt 0.65625 0.328125
vt 0.625 0.328125
vt 0.625 0.265625
vt 0.6875 0.328125
vt 0.65625 0.328125
vt 0.65625 0.265625
vt 0.6875 0.265625
vn 0.8660254037844387 0.5000000000000001 0
vn -0.8660254037844387 -0.5000000000000001 0
vn -0.5000000000000001 0.8660254037844387 0
vn 0.5000000000000001 -0.8660254037844387 0
vn 0 0 1
vn 0 0 -1
usemtl m_b6a46741-6489-459e-0551-c6ea7e117c34
f 114/337/85 113/338/85 115/339/85
f 114/337/85 115/339/85 116/340/85
f 119/341/86 117/342/86 118/343/86
f 119/341/86 118/343/86 120/344/86
f 117/345/87 113/346/87 114/347/87
f 117/345/87 114/347/87 118/348/87
f 116/349/88 115/350/88 119/351/88
f 116/349/88 119/351/88 120/352/88
f 115/353/89 113/354/89 117/355/89
f 115/353/89 117/355/89 119/356/89
f 118/357/90 114/358/90 116/359/90
f 118/357/90 116/359/90 120/360/90
o mid_lower
v 1.6515262895637772 1.1233871429775162 0.1875
v 1.6515262895637772 1.1233871429775162 -0.1875
v 1.9383145077393005 0.7138111208330203 0.1875
v 1.9383145077393005 0.7138111208330203 -0.1875
v 1.2931472701873434 0.8724474520739336 0.1875
v 1.2931472701873434 0.8724474520739336 -0.1875
v 1.5799354883628665 0.46287142992943764 0.1875
v 1.5799354883628665 0.46287142992943764 -0.1875
vt 0.671875 0.8125
vt 0.625 0.8125
vt 0.625 0.75
vt 0.671875 0.75
vt 0.671875 0.421875
vt 0.671875 0.484375
vt 0.625 0.484375
vt 0.625 0.421875
vt 0.625 0.375
vt 0.6875 0.375
vt 0.6875 0.421875
vt 0.625 0.421875
vt 0.6875 0.328125
vt 0.6875 0.375
vt 0.625 0.375
vt 0.625 0.328125
vt 0.640625 0.546875
vt 0.640625 0.609375
vt 0.578125 0.609375
vt 0.578125 0.546875
vt 0.640625 0.546875
vt 0.578125 0.546875
vt 0.578125 0.484375
vt 0.640625 0.484375
vn 0.8191520442889918 0.5735764363510462 0
vn -0.8191520442889918 -0.5735764363510462 0
vn -0.5735764363510462 0.8191520442889918 0
vn 0.5735764363510462 -0.8191520442889918 0
vn 0 0 1
vn 0 0 -1
usemtl m_b6a46741-6489-459e-0551-c6ea7e117c34
f 122/361/91 121/362/91 123/363/91
f 122/361/91 123/363/91 124/364/91
f 127/365/92 125/366/92 126/367/92
f 127/365/92 126/367/92 128/368/92
f 125/369/93 121/370/93 122/371/93
f 125/369/93 122/371/93 126/372/93
f 124/373/94 123/374/94 127/375/94
f 124/373/94 127/375/94 128/376/94
f 123/377/95 121/378/95 125/379/95
f 123/377/95 125/379/95 127/380/95
f 126/381/96 122/382/96 124/383/96
f 126/381/96 124/383/96 128/384/96
o tail_end
v 1.7350349017029956 0.8270297652307796 0.14375
v 1.7350349017029956 0.8270297652307796 -0.14375
v 2.042216918311367 0.6119386015991374 0.14375
v 2.042216918311367 0.6119386015991374 -0.14375
v 1.5557922653432936 0.5710447513904697 0.14375
v 1.5557922653432936 0.5710447513904697 -0.14375
v 1.8629742819516655 0.35595358775882746 0.14375
v 1.8629742819516655 0.35595358775882746 -0.14375
vt 0.5 0.734375
vt 0.46875 0.734375
vt 0.46875 0.6875
vt 0.5 0.6875
vt 0.53125 0.609375
vt 0.53125 0.65625
vt 0.5 0.65625
vt 0.5 0.609375
vt 0.6875 0.5625
vt 0.734375 0.5625
vt 0.734375 0.59375
vt 0.6875 0.59375
vt 0.734375 0.53125
vt 0.734375 0.5625
vt 0.6875 0.5625
vt 0.6875 0.53125
vt 0.421875 0.28125
vt 0.421875 0.328125
vt 0.375 0.328125
vt 0.375 0.28125
vt 0.71875 0.515625
vt 0.671875 0.515625
vt 0.671875 0.46875
vt 0.71875 0.46875
vn 0.5735764363510462 0.8191520442889919 0
vn -0.5735764363510462 -0.8191520442889919 0
vn -0.8191520442889919 0.5735764363510462 0
vn 0.8191520442889919 -0.5735764363510462 0
vn 0 0 1
vn 0 0 -1
usemtl m_b6a46741-6489-459e-0551-c6ea7e117c34
f 130/385/97 129/386/97 131/387/97
f 130/385/97 131/387/97 132/388/97
f 135/389/98 133/390/98 134/391/98
f 135/389/98 134/391/98 136/392/98
f 133/393/99 129/394/99 130/395/99
f 133/393/99 130/395/99 134/396/99
f 132/397/100 131/398/100 135/399/100
f 132/397/100 135/399/100 136/400/100
f 131/401/101 129/402/101 133/403/101
f 131/401/101 133/403/101 135/404/101
f 134/405/102 130/406/102 132/407/102
f 134/405/102 132/407/102 136/408/102