# Made in Blockbench 4.9.4
mtllib wall_segment.mtl

o cuboid
v 0.25 4.25 1.5
v 0.25 4.25 -1.5
v 0.25 0 1.5
v 0.25 0 -1.5
v -0.25 4.25 1.5
v -0.25 4.25 -1.5
v -0.25 0 1.5
v -0.25 0 -1.5
vt 0.1875 1
vt 0 1
vt 0 0.734375
vt 0.1875 0.734375
vt 0.375 0.734375
vt 0.375 1
vt 0.1875 1
vt 0.1875 0.734375
vt 0.0625 0.546875
vt 0.09375 0.546875
vt 0.09375 0.734375
vt 0.0625 0.734375
vt 0.125 0.546875
vt 0.125 0.734375
vt 0.09375 0.734375
vt 0.09375 0.546875
vt 0.03125 0.46875
vt 0.03125 0.734375
vt 0 0.734375
vt 0 0.46875
vt 0.0625 0.734375
vt 0.03125 0.734375
vt 0.03125 0.46875
vt 0.0625 0.46875
vn 1 0 0
vn -1 0 0
vn 0 1 0
vn 0 -1 0
vn 0 0 1
vn 0 0 -1
usemtl m_34abbc0a-7973-b8e7-1dce-af911ac0865f
f 2/1/1 1/2/1 3/3/1
f 2/1/1 3/3/1 4/4/1
f 7/5/2 5/6/2 6/7/2
f 7/5/2 6/7/2 8/8/2
f 5/9/3 1/10/3 2/11/3
f 5/9/3 2/11/3 6/12/3
f 4/13/4 3/14/4 7/15/4
f 4/13/4 7/15/4 8/16/4
f 3/17/5 1/18/5 5/19/5
f 3/17/5 5/19/5 7/20/5
f 6/21/6 2/22/6 4/23/6
f 6/21/6 4/23/6 8/24/6